<svg width="24" height="24" viewBox="0 0 24 24" fill="none" xmlns="http://www.w3.org/2000/svg">
<path d="M19 8C18.7167 8 18.4793 7.90433 18.288 7.713C18.096 7.521 18 7.28333 18 7V5C18 4.71667 18.096 4.479 18.288 4.287C18.4793 4.09567 18.7167 4 19 4H21C21.2833 4 21.5207 4.09567 21.712 4.287C21.904 4.479 22 4.71667 22 5V7C22 7.28333 21.904 7.521 21.712 7.713C21.5207 7.90433 21.2833 8 21 8H19ZM19 14C18.7167 14 18.4793 13.904 18.288 13.712C18.096 13.5207 18 13.2833 18 13V11C18 10.7167 18.096 10.479 18.288 10.287C18.4793 10.0957 18.7167 10 19 10H21C21.2833 10 21.5207 10.0957 21.712 10.287C21.904 10.479 22 10.7167 22 11V13C22 13.2833 21.904 13.5207 21.712 13.712C21.5207 13.904 21.2833 14 21 14H19ZM3 20C2.71667 20 2.47933 19.904 2.288 19.712C2.096 19.5207 2 19.2833 2 19V5C2 4.71667 2.096 4.479 2.288 4.287C2.47933 4.09567 2.71667 4 3 4H15C15.2833 4 15.521 4.09567 15.713 4.287C15.9043 4.479 16 4.71667 16 5V19C16 19.2833 15.9043 19.5207 15.713 19.712C15.521 19.904 15.2833 20 15 20H3ZM19 20C18.7167 20 18.4793 19.904 18.288 19.712C18.096 19.5207 18 19.2833 18 19V17C18 16.7167 18.096 16.4793 18.288 16.288C18.4793 16.096 18.7167 16 19 16H21C21.2833 16 21.5207 16.096 21.712 16.288C21.904 16.4793 22 16.7167 22 17V19C22 19.2833 21.904 19.5207 21.712 19.712C21.5207 19.904 21.2833 20 21 20H19Z" fill="#999999"/>
</svg>
