<svg xmlns="http://www.w3.org/2000/svg" viewBox="0 0 297 297" style="enable-background:new 0 0 297 297" xml:space="preserve"><circle style="fill:#b8c9f1" cx="148.5" cy="148.5" r="148.5"/><path style="fill:#8d9bb5" d="M297 148.5c0-1.052-.018-2.1-.04-3.146l-59.403-59.403-195.202 122.47 87.405 87.405A149.757 149.757 0 0 0 148.5 297c82.014 0 148.5-66.486 148.5-148.5z"/><path style="fill:#292d30" d="M66.648 203.611h163.703c5.421 0 9.815-4.394 9.815-9.815V92.593c0-5.421-4.394-9.815-9.815-9.815H66.648c-5.421 0-9.815 4.394-9.815 9.815v101.203c0 5.421 4.395 9.815 9.815 9.815z"/><path style="fill:#2c3033" d="M230.352 82.778h-81.185v120.833h81.185c5.421 0 9.815-4.394 9.815-9.815V92.593c0-5.421-4.395-9.815-9.815-9.815z"/><path style="fill:#ecf0f1" d="M66.833 93.611h163.333v92.5H66.833z"/><path style="fill:#d0d5d9" d="M149.167 93.611h81v92.5h-81z"/><path style="fill:#43484c" d="M245.537 212.222H51.463c-7.159 0-12.963-5.804-12.963-12.963v-5.371h220v5.371c0 7.16-5.804 12.963-12.963 12.963z"/><path style="fill:#303538" d="M149.167 193.889v18.333h96.37c7.159 0 12.963-5.804 12.963-12.963v-5.37H149.167z"/></svg>