<svg xmlns="http://www.w3.org/2000/svg" viewBox="0 0 297 297" style="enable-background:new 0 0 297 297" xml:space="preserve"><circle style="fill:#3dbce5" cx="148.5" cy="148.5" r="148.5"/><path style="fill:#2393ad" d="M297 148.5c0-12.331-1.513-24.307-4.346-35.762l-71.963-71.94c-2.07 2.798-4.189 5.668-7.069 7.658-2.926 27.609 1.878 55.67 1.878 83.044-1 10-6 18-16 21-42 12-82 25-126 29-10.385.865-18.6 6.906-28.135 12.02L148.85 296.996C230.703 296.806 297 230.397 297 148.5z"/><path style="fill:#ecf0f1" d="M222.75 137h-16.5V46.25a8.25 8.25 0 0 1 16.5 0V137z"/><path style="fill:#e3e5e4" d="M55.917 198h185.167c8.1 0 14.667-6.566 14.667-14.667v-36.667c0-8.1-6.566-14.667-14.667-14.667H55.917c-8.1 0-14.667 6.566-14.667 14.667v36.667c0 8.101 6.566 14.667 14.667 14.667z"/><path style="fill:#e3e5e4" d="M55.917 198h185.167c8.1 0 14.667-6.566 14.667-14.667v-36.667c0-8.1-6.566-14.667-14.667-14.667H55.917c-8.1 0-14.667 6.566-14.667 14.667v36.667c0 8.101 6.566 14.667 14.667 14.667z"/><path style="fill:#c4c6c5" d="M241.083 132h-93.25v66h93.25c8.1 0 14.667-6.566 14.667-14.667v-36.667c0-8.1-6.566-14.666-14.667-14.666z"/><path style="fill:#61676b" d="M134.333 181.5H63.667a5.917 5.917 0 0 1-5.917-5.917v-4.667a5.917 5.917 0 0 1 5.917-5.917h70.667a5.917 5.917 0 0 1 5.917 5.917v4.667a5.918 5.918 0 0 1-5.918 5.917z"/><circle style="fill:#86c867" cx="232.941" cy="173.25" r="6.309"/><circle style="fill:#86c867" cx="214.015" cy="173.25" r="6.309"/><circle style="fill:#86c867" cx="195.088" cy="173.25" r="6.309"/></svg>