<svg xmlns="http://www.w3.org/2000/svg" viewBox="0 0 297 297" style="enable-background:new 0 0 297 297" xml:space="preserve"><circle style="fill:#4f2b4f" cx="148.5" cy="148.5" r="148.5"/><path style="fill:#3c203d" d="m291.823 109.533-28.688-28.415c-40.326 15.494-79.7 29.578-123.635 32.382-5 1-11 3-12 6-2 15-15 21-22 32-2 4-5 7-4 11 0 29.684-12.568 57.987-30.525 80.114l52.234 52.232A149.386 149.386 0 0 0 148.5 297c82.014 0 148.5-66.486 148.5-148.5 0-13.486-1.808-26.548-5.177-38.967z"/><path style="fill:#5d7486" d="M148.5 89.167H198v44.667h-49.5z"/><path style="fill:#e3e5e4" d="M82.834 247.5h65.333c9.297 0 16.833-7.537 16.833-16.833V66.334c0-9.297-7.537-16.834-16.833-16.834H82.834C73.537 49.5 66 57.037 66 66.334v164.333c0 9.296 7.537 16.833 16.834 16.833z"/><circle style="fill:#c63c22" cx="92.75" cy="161" r="6.25"/><path style="fill:#bebebf" d="M148.167 49.5h-32.5v198h32.5c9.297 0 16.833-7.537 16.833-16.833V66.333c0-9.296-7.537-16.833-16.833-16.833z"/><path style="fill:#e3e5e4" d="M257.693 145h-69.886a6.307 6.307 0 0 1-6.307-6.307V84.307A6.307 6.307 0 0 1 187.807 78h69.886A6.307 6.307 0 0 1 264 84.307v54.386a6.307 6.307 0 0 1-6.307 6.307z"/><circle style="fill:#899196" cx="115.5" cy="99" r="41"/><path style="fill:#899196" d="M90.75 198h49.5a8.25 8.25 0 0 0 0-16.5h-49.5a8.25 8.25 0 0 0 0 16.5zm0 33h49.5a8.25 8.25 0 0 0 0-16.5h-49.5a8.25 8.25 0 0 0 0 16.5z"/><path style="fill:#626a6d" d="M156.5 99c0-22.588-18.267-40.905-40.833-40.996v81.992C138.233 139.905 156.5 121.588 156.5 99zm-16.25 82.5h-24.583V198h24.583a8.25 8.25 0 0 0 0-16.5zm0 33h-24.583V231h24.583a8.25 8.25 0 0 0 0-16.5z"/><circle style="fill:#d0d5d9" cx="115.5" cy="99" r="20.5"/><path style="fill:#d0d5d9" d="M136 99c0-11.265-9.089-20.401-20.333-20.492v40.983C126.911 119.401 136 110.265 136 99z"/></svg>