<svg xmlns="http://www.w3.org/2000/svg" viewBox="0 0 297 297" style="enable-background:new 0 0 297 297" xml:space="preserve"><circle style="fill:#404447" cx="148.5" cy="148.5" r="148.5"/><path style="fill:#2c3033" d="M297 148.5c0-11.659-1.347-23.004-3.888-33.889l-63.57-63.501-177.12 176.152 66.453 66.779A149.199 149.199 0 0 0 148.501 297C230.514 297 297 230.514 297 148.5z"/><path style="fill:#d0d5d9" d="M170.167 231H60.834c-6.259 0-11.333-5.074-11.333-11.333V93.833c0-6.259 5.074-11.333 11.333-11.333h109.333c6.259 0 11.333 5.074 11.333 11.333v125.833c0 6.26-5.074 11.334-11.333 11.334z"/><path style="fill:#17ab93" d="M66 99h99v99H66z"/><path style="fill:#bcbfc1" d="M170.167 82.5h-58V231h58c6.259 0 11.333-5.074 11.333-11.333V93.833c0-6.259-5.074-11.333-11.333-11.333z"/><path style="fill:#ecf0f1" d="M221.361 199.75H108.639c-6.428 0-11.639-5.211-11.639-11.639V59.389c0-6.428 5.211-11.639 11.639-11.639h112.723c6.428 0 11.639 5.211 11.639 11.639v128.723c-.001 6.427-5.212 11.638-11.64 11.638z"/><path style="fill:#d0d5d9" d="M221.361 47.75h-56.528v152h56.528c6.428 0 11.639-5.211 11.639-11.639V59.389c0-6.428-5.211-11.639-11.639-11.639z"/><path style="fill:#82d9c8" d="M114 64.639h102v101.333H114z"/><path style="fill:#66b5a5" d="M164.834 64.639H216v101.333h-51.166z"/></svg>