<svg xmlns="http://www.w3.org/2000/svg" viewBox="0 0 297 297" style="enable-background:new 0 0 297 297" xml:space="preserve"><circle style="fill:#82d9c8" cx="148.5" cy="148.5" r="148.5"/><path style="fill:#12967d" d="M297 148.5a149.06 149.06 0 0 0-3.351-31.464l-32.083-32.083L35.005 211.518l82.159 82.159A149.076 149.076 0 0 0 148.5 297c82.014 0 148.5-66.486 148.5-148.5z"/><path style="fill:#252a2d" d="M115.5 212.75h66v20h-66z"/><path style="fill:#191c1e" d="M148.167 212.75H181.5v20h-33.333z"/><path style="fill:#32373b" d="M255.667 214.5H41.333A8.333 8.333 0 0 1 33 206.167V90.834a8.334 8.334 0 0 1 8.333-8.334h214.333a8.333 8.333 0 0 1 8.333 8.334v115.333a8.332 8.332 0 0 1-8.332 8.333z"/><path style="fill:#282d30" d="M255.667 82.5h-107.5v132h107.5a8.333 8.333 0 0 0 8.333-8.333V90.833a8.333 8.333 0 0 0-8.333-8.333z"/><path style="fill:#707b82" d="M49.5 99h198v99h-198z"/><path style="fill:#32373b" d="M90.75 247.5h115.5a8.25 8.25 0 0 0 0-16.5H90.75a8.25 8.25 0 0 0 0 16.5z"/><path style="fill:#616b70" d="M148.167 99H247.5v99h-99.333z"/><path style="fill:#282d30" d="M206.25 231h-58.083v16.5h58.083a8.25 8.25 0 0 0 0-16.5z"/></svg>