<?xml version="1.0" encoding="iso-8859-1"?>
<!-- Generator: Adobe Illustrator 19.0.0, SVG Export Plug-In . SVG Version: 6.00 Build 0)  -->
<svg version="1.1" id="Layer_1" xmlns="http://www.w3.org/2000/svg" xmlns:xlink="http://www.w3.org/1999/xlink" x="0px" y="0px"
	 viewBox="0 0 297 297" style="enable-background:new 0 0 297 297;" xml:space="preserve">
<g>
	<g>
		<circle style="fill:#4F2B4F;" cx="148.5" cy="148.5" r="148.5"/>
	</g>
	<path style="fill:#3C203D;" d="M291.823,109.533l-28.688-28.415c-40.326,15.494-79.7,29.578-123.635,32.382c-5,1-11,3-12,6
		c-2,15-15,21-22,32c-2,4-5,7-4,11c0,29.684-12.568,57.987-30.525,80.114l52.234,52.232c8.22,1.411,16.668,2.154,25.291,2.154
		c82.014,0,148.5-66.486,148.5-148.5C297,135.014,295.192,121.952,291.823,109.533z"/>
	<g>
		<rect x="148.5" y="89.167" style="fill:#5D7486;" width="49.5" height="44.667"/>
	</g>
	<g>
		<path style="fill:#E3E5E4;" d="M82.834,247.5h65.333c9.297,0,16.833-7.537,16.833-16.833V66.334
			c0-9.297-7.537-16.834-16.833-16.834H82.834C73.537,49.5,66,57.037,66,66.334v164.333C66,239.963,73.537,247.5,82.834,247.5z"/>
	</g>
	<g>
		<circle style="fill:#C63C22;" cx="92.75" cy="161" r="6.25"/>
	</g>
	<g>
		<path style="fill:#BEBEBF;" d="M148.167,49.5h-32.5v198h32.5c9.297,0,16.833-7.537,16.833-16.833V66.333
			C165,57.037,157.463,49.5,148.167,49.5z"/>
	</g>
	<g>
		<path style="fill:#E3E5E4;" d="M257.693,145h-69.886c-3.483,0-6.307-2.824-6.307-6.307V84.307c0-3.483,2.824-6.307,6.307-6.307
			h69.886c3.483,0,6.307,2.824,6.307,6.307v54.386C264,142.176,261.176,145,257.693,145z"/>
	</g>
	<g>
		<circle style="fill:#899196;" cx="115.5" cy="99" r="41"/>
	</g>
	<g>
		<path style="fill:#899196;" d="M90.75,198h49.5c4.556,0,8.25-3.694,8.25-8.25l0,0c0-4.556-3.694-8.25-8.25-8.25h-49.5
			c-4.556,0-8.25,3.694-8.25,8.25l0,0C82.5,194.306,86.194,198,90.75,198z"/>
	</g>
	<g>
		<path style="fill:#899196;" d="M90.75,231h49.5c4.556,0,8.25-3.694,8.25-8.25l0,0c0-4.556-3.694-8.25-8.25-8.25h-49.5
			c-4.556,0-8.25,3.694-8.25,8.25l0,0C82.5,227.306,86.194,231,90.75,231z"/>
	</g>
	<g>
		<path style="fill:#626A6D;" d="M156.5,99c0-22.588-18.267-40.905-40.833-40.996v81.992C138.233,139.905,156.5,121.588,156.5,99z"
			/>
	</g>
	<g>
		<path style="fill:#626A6D;" d="M140.25,181.5h-24.583V198h24.583c4.556,0,8.25-3.694,8.25-8.25S144.806,181.5,140.25,181.5z"/>
	</g>
	<g>
		<path style="fill:#626A6D;" d="M140.25,214.5h-24.583V231h24.583c4.556,0,8.25-3.694,8.25-8.25S144.806,214.5,140.25,214.5z"/>
	</g>
	<g>
		<circle style="fill:#D0D5D9;" cx="115.5" cy="99" r="20.5"/>
	</g>
	<g>
		<path style="fill:#D0D5D9;" d="M136,99c0-11.265-9.089-20.401-20.333-20.492v40.983C126.911,119.401,136,110.265,136,99z"/>
	</g>
</g>
<g>
</g>
<g>
</g>
<g>
</g>
<g>
</g>
<g>
</g>
<g>
</g>
<g>
</g>
<g>
</g>
<g>
</g>
<g>
</g>
<g>
</g>
<g>
</g>
<g>
</g>
<g>
</g>
<g>
</g>
</svg>
