<?xml version="1.0" encoding="iso-8859-1"?>
<!-- Generator: Adobe Illustrator 19.0.0, SVG Export Plug-In . SVG Version: 6.00 Build 0)  -->
<svg version="1.1" id="Layer_1" xmlns="http://www.w3.org/2000/svg" xmlns:xlink="http://www.w3.org/1999/xlink" x="0px" y="0px"
	 viewBox="0 0 297 297" style="enable-background:new 0 0 297 297;" xml:space="preserve">
<g>
	<g>
		<circle style="fill:#B8C9F1;" cx="148.5" cy="148.5" r="148.5"/>
	</g>
	<path style="fill:#8D9BB5;" d="M297,148.5c0-1.052-0.018-2.1-0.04-3.146l-59.403-59.403L42.355,208.421l87.405,87.405
		C135.899,296.6,142.153,297,148.5,297C230.514,297,297,230.514,297,148.5z"/>
	<g>
		<path style="fill:#292D30;" d="M66.648,203.611h163.703c5.421,0,9.815-4.394,9.815-9.815V92.593c0-5.421-4.394-9.815-9.815-9.815
			H66.648c-5.421,0-9.815,4.394-9.815,9.815v101.203C56.833,199.217,61.228,203.611,66.648,203.611z"/>
	</g>
	<g>
		<path style="fill:#2C3033;" d="M230.352,82.778h-81.185v120.833h81.185c5.421,0,9.815-4.394,9.815-9.815V92.593
			C240.167,87.172,235.772,82.778,230.352,82.778z"/>
	</g>
	<g>
		<rect x="66.833" y="93.611" style="fill:#ECF0F1;" width="163.333" height="92.5"/>
	</g>
	<g>
		<rect x="149.167" y="93.611" style="fill:#D0D5D9;" width="81" height="92.5"/>
	</g>
	<g>
		<path style="fill:#43484C;" d="M245.537,212.222H51.463c-7.159,0-12.963-5.804-12.963-12.963v-5.371h220v5.371
			C258.5,206.419,252.696,212.222,245.537,212.222z"/>
	</g>
	<g>
		<path style="fill:#303538;" d="M149.167,193.889v18.333h96.37c7.159,0,12.963-5.804,12.963-12.963v-5.37L149.167,193.889
			L149.167,193.889z"/>
	</g>
</g>
<g>
</g>
<g>
</g>
<g>
</g>
<g>
</g>
<g>
</g>
<g>
</g>
<g>
</g>
<g>
</g>
<g>
</g>
<g>
</g>
<g>
</g>
<g>
</g>
<g>
</g>
<g>
</g>
<g>
</g>
</svg>
